<mxfile host="app.diagrams.net" agent="Mozilla/5.0 (Windows NT 10.0; Win64; x64) AppleWebKit/537.36 (KHTML, like Gecko) Chrome/131.0.0.0 Safari/537.36 Edg/131.0.0.0" version="25.0.3">
  <diagram name="Page-1" id="ZB5toTFea830uY04cQWw">
    <mxGraphModel dx="835" dy="478" grid="1" gridSize="10" guides="0" tooltips="1" connect="1" arrows="1" fold="1" page="1" pageScale="1" pageWidth="850" pageHeight="1100" math="0" shadow="0">
      <root>
        <mxCell id="0" />
        <mxCell id="1" parent="0" />
        <mxCell id="EZWAzVr7WTAh8EEskt6z-18" style="edgeStyle=orthogonalEdgeStyle;rounded=0;orthogonalLoop=1;jettySize=auto;html=1;exitX=1;exitY=0.5;exitDx=0;exitDy=0;entryX=0;entryY=0.5;entryDx=0;entryDy=0;entryPerimeter=0;endArrow=classicThin;endFill=1;" edge="1" parent="1" source="EZWAzVr7WTAh8EEskt6z-1" target="EZWAzVr7WTAh8EEskt6z-10">
          <mxGeometry relative="1" as="geometry" />
        </mxCell>
        <mxCell id="EZWAzVr7WTAh8EEskt6z-17" style="edgeStyle=orthogonalEdgeStyle;rounded=0;orthogonalLoop=1;jettySize=auto;html=1;exitX=1;exitY=0.5;exitDx=0;exitDy=0;entryX=0;entryY=0.5;entryDx=0;entryDy=0;entryPerimeter=0;endArrow=classicThin;endFill=1;" edge="1" parent="1" source="EZWAzVr7WTAh8EEskt6z-2" target="EZWAzVr7WTAh8EEskt6z-9">
          <mxGeometry relative="1" as="geometry">
            <Array as="points">
              <mxPoint x="630" y="80" />
              <mxPoint x="630" y="80" />
            </Array>
          </mxGeometry>
        </mxCell>
        <mxCell id="EZWAzVr7WTAh8EEskt6z-19" style="edgeStyle=orthogonalEdgeStyle;rounded=0;orthogonalLoop=1;jettySize=auto;html=1;exitX=1;exitY=0.5;exitDx=0;exitDy=0;entryX=0;entryY=0.5;entryDx=0;entryDy=0;entryPerimeter=0;endArrow=classicThin;endFill=1;" edge="1" parent="1" source="EZWAzVr7WTAh8EEskt6z-3">
          <mxGeometry relative="1" as="geometry">
            <mxPoint x="680" y="400" as="targetPoint" />
          </mxGeometry>
        </mxCell>
        <mxCell id="EZWAzVr7WTAh8EEskt6z-20" style="edgeStyle=orthogonalEdgeStyle;rounded=0;orthogonalLoop=1;jettySize=auto;html=1;exitX=1;exitY=0.5;exitDx=0;exitDy=0;entryX=0;entryY=0.5;entryDx=0;entryDy=0;entryPerimeter=0;endArrow=classicThin;endFill=1;" edge="1" parent="1" source="EZWAzVr7WTAh8EEskt6z-4" target="EZWAzVr7WTAh8EEskt6z-55">
          <mxGeometry relative="1" as="geometry">
            <mxPoint x="680" y="540" as="targetPoint" />
          </mxGeometry>
        </mxCell>
        <mxCell id="EZWAzVr7WTAh8EEskt6z-21" style="edgeStyle=orthogonalEdgeStyle;rounded=0;orthogonalLoop=1;jettySize=auto;html=1;exitX=1;exitY=0.5;exitDx=0;exitDy=0;endArrow=classicThin;endFill=1;entryX=0;entryY=0;entryDx=0;entryDy=40.50000000000004;entryPerimeter=0;" edge="1" parent="1" source="EZWAzVr7WTAh8EEskt6z-4" target="EZWAzVr7WTAh8EEskt6z-59">
          <mxGeometry relative="1" as="geometry">
            <mxPoint x="690" y="640" as="targetPoint" />
          </mxGeometry>
        </mxCell>
        <mxCell id="EZWAzVr7WTAh8EEskt6z-22" style="edgeStyle=orthogonalEdgeStyle;rounded=0;orthogonalLoop=1;jettySize=auto;html=1;exitX=1;exitY=0.5;exitDx=0;exitDy=0;entryX=0;entryY=0.5;entryDx=0;entryDy=0;entryPerimeter=0;endArrow=classicThin;endFill=1;" edge="1" parent="1" source="EZWAzVr7WTAh8EEskt6z-4" target="EZWAzVr7WTAh8EEskt6z-63">
          <mxGeometry relative="1" as="geometry">
            <mxPoint x="680" y="716" as="targetPoint" />
          </mxGeometry>
        </mxCell>
        <mxCell id="EZWAzVr7WTAh8EEskt6z-23" style="edgeStyle=orthogonalEdgeStyle;rounded=0;orthogonalLoop=1;jettySize=auto;html=1;exitX=1;exitY=0.5;exitDx=0;exitDy=0;entryX=0;entryY=0.5;entryDx=0;entryDy=0;entryPerimeter=0;endArrow=classicThin;endFill=1;" edge="1" parent="1" source="EZWAzVr7WTAh8EEskt6z-5" target="EZWAzVr7WTAh8EEskt6z-67">
          <mxGeometry relative="1" as="geometry">
            <mxPoint x="400" y="480" as="targetPoint" />
          </mxGeometry>
        </mxCell>
        <mxCell id="EZWAzVr7WTAh8EEskt6z-24" style="edgeStyle=orthogonalEdgeStyle;rounded=0;orthogonalLoop=1;jettySize=auto;html=1;exitX=1;exitY=0.5;exitDx=0;exitDy=0;entryX=0;entryY=0.5;entryDx=0;entryDy=0;entryPerimeter=0;endArrow=classicThin;endFill=1;" edge="1" parent="1" source="EZWAzVr7WTAh8EEskt6z-6" target="EZWAzVr7WTAh8EEskt6z-79">
          <mxGeometry relative="1" as="geometry">
            <mxPoint x="680" y="560" as="targetPoint" />
          </mxGeometry>
        </mxCell>
        <mxCell id="EZWAzVr7WTAh8EEskt6z-44" value="" style="group" vertex="1" connectable="0" parent="1">
          <mxGeometry x="680" y="40" width="120" height="100" as="geometry" />
        </mxCell>
        <mxCell id="EZWAzVr7WTAh8EEskt6z-41" value="" style="group" vertex="1" connectable="0" parent="EZWAzVr7WTAh8EEskt6z-44">
          <mxGeometry width="120" height="80" as="geometry" />
        </mxCell>
        <mxCell id="EZWAzVr7WTAh8EEskt6z-9" value="" style="shape=cylinder3;whiteSpace=wrap;html=1;boundedLbl=1;backgroundOutline=1;size=15;" vertex="1" parent="EZWAzVr7WTAh8EEskt6z-41">
          <mxGeometry width="60" height="80" as="geometry" />
        </mxCell>
        <mxCell id="EZWAzVr7WTAh8EEskt6z-39" value="" style="shape=cylinder3;whiteSpace=wrap;html=1;boundedLbl=1;backgroundOutline=1;size=15;" vertex="1" parent="EZWAzVr7WTAh8EEskt6z-41">
          <mxGeometry x="60" width="60" height="80" as="geometry" />
        </mxCell>
        <mxCell id="EZWAzVr7WTAh8EEskt6z-40" value="User DB" style="shape=cylinder3;whiteSpace=wrap;html=1;boundedLbl=1;backgroundOutline=1;size=15;" vertex="1" parent="EZWAzVr7WTAh8EEskt6z-44">
          <mxGeometry x="30" y="20" width="60" height="80" as="geometry" />
        </mxCell>
        <mxCell id="EZWAzVr7WTAh8EEskt6z-45" value="" style="group" vertex="1" connectable="0" parent="1">
          <mxGeometry x="680" y="200" width="120" height="100" as="geometry" />
        </mxCell>
        <mxCell id="EZWAzVr7WTAh8EEskt6z-10" value="" style="shape=cylinder3;whiteSpace=wrap;html=1;boundedLbl=1;backgroundOutline=1;size=15;" vertex="1" parent="EZWAzVr7WTAh8EEskt6z-45">
          <mxGeometry width="60" height="80" as="geometry" />
        </mxCell>
        <mxCell id="EZWAzVr7WTAh8EEskt6z-43" value="" style="shape=cylinder3;whiteSpace=wrap;html=1;boundedLbl=1;backgroundOutline=1;size=15;" vertex="1" parent="EZWAzVr7WTAh8EEskt6z-45">
          <mxGeometry x="60" width="60" height="80" as="geometry" />
        </mxCell>
        <mxCell id="EZWAzVr7WTAh8EEskt6z-42" value="Session DB" style="shape=cylinder3;whiteSpace=wrap;html=1;boundedLbl=1;backgroundOutline=1;size=15;" vertex="1" parent="EZWAzVr7WTAh8EEskt6z-45">
          <mxGeometry x="30" y="20" width="60" height="80" as="geometry" />
        </mxCell>
        <mxCell id="EZWAzVr7WTAh8EEskt6z-46" value="" style="group" vertex="1" connectable="0" parent="1">
          <mxGeometry x="440" y="40" width="140" height="100" as="geometry" />
        </mxCell>
        <mxCell id="EZWAzVr7WTAh8EEskt6z-26" value="" style="rounded=0;whiteSpace=wrap;html=1;" vertex="1" parent="EZWAzVr7WTAh8EEskt6z-46">
          <mxGeometry x="20" y="20" width="120" height="80" as="geometry" />
        </mxCell>
        <mxCell id="EZWAzVr7WTAh8EEskt6z-25" value="" style="rounded=0;whiteSpace=wrap;html=1;" vertex="1" parent="EZWAzVr7WTAh8EEskt6z-46">
          <mxGeometry x="10" y="10" width="120" height="80" as="geometry" />
        </mxCell>
        <mxCell id="EZWAzVr7WTAh8EEskt6z-2" value="User Mgmt" style="rounded=0;whiteSpace=wrap;html=1;" vertex="1" parent="EZWAzVr7WTAh8EEskt6z-46">
          <mxGeometry width="120" height="80" as="geometry" />
        </mxCell>
        <mxCell id="EZWAzVr7WTAh8EEskt6z-47" value="" style="group" vertex="1" connectable="0" parent="1">
          <mxGeometry x="440" y="200" width="140" height="100" as="geometry" />
        </mxCell>
        <mxCell id="EZWAzVr7WTAh8EEskt6z-27" value="" style="rounded=0;whiteSpace=wrap;html=1;" vertex="1" parent="EZWAzVr7WTAh8EEskt6z-47">
          <mxGeometry x="20" y="20" width="120" height="80" as="geometry" />
        </mxCell>
        <mxCell id="EZWAzVr7WTAh8EEskt6z-28" value="" style="rounded=0;whiteSpace=wrap;html=1;" vertex="1" parent="EZWAzVr7WTAh8EEskt6z-47">
          <mxGeometry x="10" y="10" width="120" height="80" as="geometry" />
        </mxCell>
        <mxCell id="EZWAzVr7WTAh8EEskt6z-1" value="Session Mgmt" style="rounded=0;whiteSpace=wrap;html=1;" vertex="1" parent="EZWAzVr7WTAh8EEskt6z-47">
          <mxGeometry width="120" height="80" as="geometry" />
        </mxCell>
        <mxCell id="EZWAzVr7WTAh8EEskt6z-49" value="" style="group" vertex="1" connectable="0" parent="1">
          <mxGeometry x="680" y="360" width="120" height="100" as="geometry" />
        </mxCell>
        <mxCell id="EZWAzVr7WTAh8EEskt6z-50" value="" style="shape=cylinder3;whiteSpace=wrap;html=1;boundedLbl=1;backgroundOutline=1;size=15;" vertex="1" parent="EZWAzVr7WTAh8EEskt6z-49">
          <mxGeometry width="60" height="80" as="geometry" />
        </mxCell>
        <mxCell id="EZWAzVr7WTAh8EEskt6z-51" value="" style="shape=cylinder3;whiteSpace=wrap;html=1;boundedLbl=1;backgroundOutline=1;size=15;" vertex="1" parent="EZWAzVr7WTAh8EEskt6z-49">
          <mxGeometry x="60" width="60" height="80" as="geometry" />
        </mxCell>
        <mxCell id="EZWAzVr7WTAh8EEskt6z-52" value="Accounts DB" style="shape=cylinder3;whiteSpace=wrap;html=1;boundedLbl=1;backgroundOutline=1;size=15;" vertex="1" parent="EZWAzVr7WTAh8EEskt6z-49">
          <mxGeometry x="30" y="20" width="60" height="80" as="geometry" />
        </mxCell>
        <mxCell id="EZWAzVr7WTAh8EEskt6z-53" value="" style="group" vertex="1" connectable="0" parent="1">
          <mxGeometry x="440" y="360" width="140" height="100" as="geometry" />
        </mxCell>
        <mxCell id="EZWAzVr7WTAh8EEskt6z-29" value="" style="rounded=0;whiteSpace=wrap;html=1;" vertex="1" parent="EZWAzVr7WTAh8EEskt6z-53">
          <mxGeometry x="20" y="20" width="120" height="80" as="geometry" />
        </mxCell>
        <mxCell id="EZWAzVr7WTAh8EEskt6z-30" value="" style="rounded=0;whiteSpace=wrap;html=1;" vertex="1" parent="EZWAzVr7WTAh8EEskt6z-53">
          <mxGeometry x="10" y="10" width="120" height="80" as="geometry" />
        </mxCell>
        <mxCell id="EZWAzVr7WTAh8EEskt6z-3" value="Account Mgmt" style="rounded=0;whiteSpace=wrap;html=1;" vertex="1" parent="EZWAzVr7WTAh8EEskt6z-53">
          <mxGeometry width="120" height="80" as="geometry" />
        </mxCell>
        <mxCell id="EZWAzVr7WTAh8EEskt6z-54" value="" style="group" vertex="1" connectable="0" parent="1">
          <mxGeometry x="740" y="820" width="100" height="80" as="geometry" />
        </mxCell>
        <mxCell id="EZWAzVr7WTAh8EEskt6z-55" value="" style="shape=cylinder3;whiteSpace=wrap;html=1;boundedLbl=1;backgroundOutline=1;size=15;" vertex="1" parent="EZWAzVr7WTAh8EEskt6z-54">
          <mxGeometry width="50" height="64.00000000000006" as="geometry" />
        </mxCell>
        <mxCell id="EZWAzVr7WTAh8EEskt6z-56" value="" style="shape=cylinder3;whiteSpace=wrap;html=1;boundedLbl=1;backgroundOutline=1;size=15;" vertex="1" parent="EZWAzVr7WTAh8EEskt6z-54">
          <mxGeometry x="50" width="50" height="64.00000000000006" as="geometry" />
        </mxCell>
        <mxCell id="EZWAzVr7WTAh8EEskt6z-57" value="Venue DB" style="shape=cylinder3;whiteSpace=wrap;html=1;boundedLbl=1;backgroundOutline=1;size=15;" vertex="1" parent="EZWAzVr7WTAh8EEskt6z-54">
          <mxGeometry x="25" y="16.000000000000014" width="50" height="64.00000000000006" as="geometry" />
        </mxCell>
        <mxCell id="EZWAzVr7WTAh8EEskt6z-58" value="" style="group" vertex="1" connectable="0" parent="1">
          <mxGeometry x="690" y="920" width="100" height="80" as="geometry" />
        </mxCell>
        <mxCell id="EZWAzVr7WTAh8EEskt6z-59" value="" style="shape=cylinder3;whiteSpace=wrap;html=1;boundedLbl=1;backgroundOutline=1;size=15;" vertex="1" parent="EZWAzVr7WTAh8EEskt6z-58">
          <mxGeometry width="50" height="64.00000000000006" as="geometry" />
        </mxCell>
        <mxCell id="EZWAzVr7WTAh8EEskt6z-60" value="" style="shape=cylinder3;whiteSpace=wrap;html=1;boundedLbl=1;backgroundOutline=1;size=15;" vertex="1" parent="EZWAzVr7WTAh8EEskt6z-58">
          <mxGeometry x="50" width="50" height="64.00000000000006" as="geometry" />
        </mxCell>
        <mxCell id="EZWAzVr7WTAh8EEskt6z-61" value="Slots DB" style="shape=cylinder3;whiteSpace=wrap;html=1;boundedLbl=1;backgroundOutline=1;size=15;" vertex="1" parent="EZWAzVr7WTAh8EEskt6z-58">
          <mxGeometry x="25" y="16.000000000000014" width="50" height="64.00000000000006" as="geometry" />
        </mxCell>
        <mxCell id="EZWAzVr7WTAh8EEskt6z-62" value="" style="group" vertex="1" connectable="0" parent="1">
          <mxGeometry x="740" y="1020" width="100" height="80" as="geometry" />
        </mxCell>
        <mxCell id="EZWAzVr7WTAh8EEskt6z-63" value="" style="shape=cylinder3;whiteSpace=wrap;html=1;boundedLbl=1;backgroundOutline=1;size=15;" vertex="1" parent="EZWAzVr7WTAh8EEskt6z-62">
          <mxGeometry width="50" height="64.00000000000006" as="geometry" />
        </mxCell>
        <mxCell id="EZWAzVr7WTAh8EEskt6z-64" value="" style="shape=cylinder3;whiteSpace=wrap;html=1;boundedLbl=1;backgroundOutline=1;size=15;" vertex="1" parent="EZWAzVr7WTAh8EEskt6z-62">
          <mxGeometry x="50" width="50" height="64.00000000000006" as="geometry" />
        </mxCell>
        <mxCell id="EZWAzVr7WTAh8EEskt6z-65" value="Bookings DB" style="shape=cylinder3;whiteSpace=wrap;html=1;boundedLbl=1;backgroundOutline=1;size=15;" vertex="1" parent="EZWAzVr7WTAh8EEskt6z-62">
          <mxGeometry x="25" y="16.000000000000014" width="50" height="64.00000000000006" as="geometry" />
        </mxCell>
        <mxCell id="EZWAzVr7WTAh8EEskt6z-66" value="" style="group" vertex="1" connectable="0" parent="1">
          <mxGeometry x="680" y="680" width="120" height="100" as="geometry" />
        </mxCell>
        <mxCell id="EZWAzVr7WTAh8EEskt6z-67" value="" style="shape=cylinder3;whiteSpace=wrap;html=1;boundedLbl=1;backgroundOutline=1;size=15;" vertex="1" parent="EZWAzVr7WTAh8EEskt6z-66">
          <mxGeometry width="60" height="80" as="geometry" />
        </mxCell>
        <mxCell id="EZWAzVr7WTAh8EEskt6z-68" value="" style="shape=cylinder3;whiteSpace=wrap;html=1;boundedLbl=1;backgroundOutline=1;size=15;" vertex="1" parent="EZWAzVr7WTAh8EEskt6z-66">
          <mxGeometry x="60" width="60" height="80" as="geometry" />
        </mxCell>
        <mxCell id="EZWAzVr7WTAh8EEskt6z-69" value="TXN DB" style="shape=cylinder3;whiteSpace=wrap;html=1;boundedLbl=1;backgroundOutline=1;size=15;" vertex="1" parent="EZWAzVr7WTAh8EEskt6z-66">
          <mxGeometry x="30" y="20" width="60" height="80" as="geometry" />
        </mxCell>
        <mxCell id="EZWAzVr7WTAh8EEskt6z-70" value="" style="group" vertex="1" connectable="0" parent="1">
          <mxGeometry x="440" y="920" width="140" height="100" as="geometry" />
        </mxCell>
        <mxCell id="EZWAzVr7WTAh8EEskt6z-31" value="" style="rounded=0;whiteSpace=wrap;html=1;" vertex="1" parent="EZWAzVr7WTAh8EEskt6z-70">
          <mxGeometry x="20" y="20" width="120" height="80" as="geometry" />
        </mxCell>
        <mxCell id="EZWAzVr7WTAh8EEskt6z-32" value="" style="rounded=0;whiteSpace=wrap;html=1;" vertex="1" parent="EZWAzVr7WTAh8EEskt6z-70">
          <mxGeometry x="10" y="10" width="120" height="80" as="geometry" />
        </mxCell>
        <mxCell id="EZWAzVr7WTAh8EEskt6z-4" value="Bookings Mgmt" style="rounded=0;whiteSpace=wrap;html=1;" vertex="1" parent="EZWAzVr7WTAh8EEskt6z-70">
          <mxGeometry width="120" height="80" as="geometry" />
        </mxCell>
        <mxCell id="EZWAzVr7WTAh8EEskt6z-71" value="" style="group" vertex="1" connectable="0" parent="1">
          <mxGeometry x="440" y="680" width="140" height="100" as="geometry" />
        </mxCell>
        <mxCell id="EZWAzVr7WTAh8EEskt6z-33" value="" style="rounded=0;whiteSpace=wrap;html=1;" vertex="1" parent="EZWAzVr7WTAh8EEskt6z-71">
          <mxGeometry x="20" y="20" width="120" height="80" as="geometry" />
        </mxCell>
        <mxCell id="EZWAzVr7WTAh8EEskt6z-34" value="" style="rounded=0;whiteSpace=wrap;html=1;" vertex="1" parent="EZWAzVr7WTAh8EEskt6z-71">
          <mxGeometry x="10" y="10" width="120" height="80" as="geometry" />
        </mxCell>
        <mxCell id="EZWAzVr7WTAh8EEskt6z-5" value="Payments Mgmt" style="rounded=0;whiteSpace=wrap;html=1;" vertex="1" parent="EZWAzVr7WTAh8EEskt6z-71">
          <mxGeometry width="120" height="80" as="geometry" />
        </mxCell>
        <mxCell id="EZWAzVr7WTAh8EEskt6z-76" value="" style="group" vertex="1" connectable="0" parent="1">
          <mxGeometry x="440" y="520" width="140" height="100" as="geometry" />
        </mxCell>
        <mxCell id="EZWAzVr7WTAh8EEskt6z-35" value="" style="rounded=0;whiteSpace=wrap;html=1;" vertex="1" parent="EZWAzVr7WTAh8EEskt6z-76">
          <mxGeometry x="20" y="20" width="120" height="80" as="geometry" />
        </mxCell>
        <mxCell id="EZWAzVr7WTAh8EEskt6z-36" value="" style="rounded=0;whiteSpace=wrap;html=1;" vertex="1" parent="EZWAzVr7WTAh8EEskt6z-76">
          <mxGeometry x="10" y="10" width="120" height="80" as="geometry" />
        </mxCell>
        <mxCell id="EZWAzVr7WTAh8EEskt6z-6" value="History Mgmt" style="rounded=0;whiteSpace=wrap;html=1;" vertex="1" parent="EZWAzVr7WTAh8EEskt6z-76">
          <mxGeometry width="120" height="80" as="geometry" />
        </mxCell>
        <mxCell id="EZWAzVr7WTAh8EEskt6z-77" value="" style="group" vertex="1" connectable="0" parent="1">
          <mxGeometry x="440" y="1120" width="140" height="100" as="geometry" />
        </mxCell>
        <mxCell id="EZWAzVr7WTAh8EEskt6z-37" value="" style="rounded=0;whiteSpace=wrap;html=1;" vertex="1" parent="EZWAzVr7WTAh8EEskt6z-77">
          <mxGeometry x="20" y="20" width="120" height="80" as="geometry" />
        </mxCell>
        <mxCell id="EZWAzVr7WTAh8EEskt6z-38" value="" style="rounded=0;whiteSpace=wrap;html=1;" vertex="1" parent="EZWAzVr7WTAh8EEskt6z-77">
          <mxGeometry x="10" y="10" width="120" height="80" as="geometry" />
        </mxCell>
        <mxCell id="EZWAzVr7WTAh8EEskt6z-8" value="Administrative Mgmt" style="rounded=0;whiteSpace=wrap;html=1;" vertex="1" parent="EZWAzVr7WTAh8EEskt6z-77">
          <mxGeometry width="120" height="80" as="geometry" />
        </mxCell>
        <mxCell id="EZWAzVr7WTAh8EEskt6z-78" value="" style="group" vertex="1" connectable="0" parent="1">
          <mxGeometry x="680" y="520" width="120" height="100" as="geometry" />
        </mxCell>
        <mxCell id="EZWAzVr7WTAh8EEskt6z-79" value="" style="shape=cylinder3;whiteSpace=wrap;html=1;boundedLbl=1;backgroundOutline=1;size=15;" vertex="1" parent="EZWAzVr7WTAh8EEskt6z-78">
          <mxGeometry width="60" height="80" as="geometry" />
        </mxCell>
        <mxCell id="EZWAzVr7WTAh8EEskt6z-80" value="" style="shape=cylinder3;whiteSpace=wrap;html=1;boundedLbl=1;backgroundOutline=1;size=15;" vertex="1" parent="EZWAzVr7WTAh8EEskt6z-78">
          <mxGeometry x="60" width="60" height="80" as="geometry" />
        </mxCell>
        <mxCell id="EZWAzVr7WTAh8EEskt6z-81" value="Archive DB" style="shape=cylinder3;whiteSpace=wrap;html=1;boundedLbl=1;backgroundOutline=1;size=15;" vertex="1" parent="EZWAzVr7WTAh8EEskt6z-78">
          <mxGeometry x="30" y="20" width="60" height="80" as="geometry" />
        </mxCell>
        <mxCell id="EZWAzVr7WTAh8EEskt6z-84" style="edgeStyle=orthogonalEdgeStyle;rounded=0;orthogonalLoop=1;jettySize=auto;html=1;exitX=1;exitY=0.5;exitDx=0;exitDy=0;entryX=0;entryY=0;entryDx=0;entryDy=27.5;entryPerimeter=0;dashed=1;endArrow=blockThin;endFill=1;" edge="1" parent="1" source="EZWAzVr7WTAh8EEskt6z-26" target="EZWAzVr7WTAh8EEskt6z-10">
          <mxGeometry relative="1" as="geometry" />
        </mxCell>
        <mxCell id="EZWAzVr7WTAh8EEskt6z-85" style="edgeStyle=orthogonalEdgeStyle;rounded=0;orthogonalLoop=1;jettySize=auto;html=1;exitX=1;exitY=0.75;exitDx=0;exitDy=0;entryX=1;entryY=0;entryDx=0;entryDy=27.5;entryPerimeter=0;dashed=1;endArrow=blockThin;endFill=1;" edge="1" parent="1" source="EZWAzVr7WTAh8EEskt6z-26" target="EZWAzVr7WTAh8EEskt6z-51">
          <mxGeometry relative="1" as="geometry">
            <Array as="points">
              <mxPoint x="600" y="120" />
              <mxPoint x="600" y="170" />
              <mxPoint x="820" y="170" />
              <mxPoint x="820" y="388" />
            </Array>
          </mxGeometry>
        </mxCell>
        <mxCell id="EZWAzVr7WTAh8EEskt6z-86" style="edgeStyle=orthogonalEdgeStyle;rounded=0;orthogonalLoop=1;jettySize=auto;html=1;exitX=1;exitY=0.5;exitDx=0;exitDy=0;entryX=1;entryY=0;entryDx=0;entryDy=27.5;entryPerimeter=0;dashed=1;endArrow=blockThin;endFill=1;" edge="1" parent="1" source="EZWAzVr7WTAh8EEskt6z-29" target="EZWAzVr7WTAh8EEskt6z-43">
          <mxGeometry relative="1" as="geometry">
            <Array as="points">
              <mxPoint x="600" y="420" />
              <mxPoint x="600" y="320" />
              <mxPoint x="840" y="320" />
              <mxPoint x="840" y="228" />
            </Array>
          </mxGeometry>
        </mxCell>
        <mxCell id="EZWAzVr7WTAh8EEskt6z-90" style="edgeStyle=orthogonalEdgeStyle;rounded=0;orthogonalLoop=1;jettySize=auto;html=1;exitX=1;exitY=0.5;exitDx=0;exitDy=0;entryX=0;entryY=0;entryDx=0;entryDy=52.5;entryPerimeter=0;dashed=1;endArrow=blockThin;endFill=1;" edge="1" parent="1" source="EZWAzVr7WTAh8EEskt6z-31" target="EZWAzVr7WTAh8EEskt6z-79">
          <mxGeometry relative="1" as="geometry" />
        </mxCell>
        <mxCell id="EZWAzVr7WTAh8EEskt6z-93" style="edgeStyle=orthogonalEdgeStyle;rounded=0;orthogonalLoop=1;jettySize=auto;html=1;exitX=1;exitY=0.75;exitDx=0;exitDy=0;entryX=0;entryY=0;entryDx=0;entryDy=27.5;entryPerimeter=0;dashed=1;endArrow=blockThin;endFill=1;" edge="1" parent="1" source="EZWAzVr7WTAh8EEskt6z-31" target="EZWAzVr7WTAh8EEskt6z-67">
          <mxGeometry relative="1" as="geometry">
            <Array as="points">
              <mxPoint x="600" y="1000" />
              <mxPoint x="600" y="708" />
            </Array>
          </mxGeometry>
        </mxCell>
        <mxCell id="EZWAzVr7WTAh8EEskt6z-94" style="edgeStyle=orthogonalEdgeStyle;rounded=0;orthogonalLoop=1;jettySize=auto;html=1;exitX=1;exitY=0.75;exitDx=0;exitDy=0;entryX=1;entryY=0;entryDx=0;entryDy=27.5;entryPerimeter=0;dashed=1;endArrow=blockThin;endFill=1;" edge="1" parent="1" source="EZWAzVr7WTAh8EEskt6z-29" target="EZWAzVr7WTAh8EEskt6z-80">
          <mxGeometry relative="1" as="geometry">
            <Array as="points">
              <mxPoint x="600" y="440" />
              <mxPoint x="600" y="480" />
              <mxPoint x="820" y="480" />
              <mxPoint x="820" y="548" />
            </Array>
          </mxGeometry>
        </mxCell>
        <mxCell id="EZWAzVr7WTAh8EEskt6z-95" style="edgeStyle=orthogonalEdgeStyle;rounded=0;orthogonalLoop=1;jettySize=auto;html=1;exitX=1;exitY=0.25;exitDx=0;exitDy=0;entryX=1;entryY=0;entryDx=0;entryDy=23.500000000000014;entryPerimeter=0;dashed=1;endArrow=blockThin;endFill=1;" edge="1" parent="1" source="EZWAzVr7WTAh8EEskt6z-37" target="EZWAzVr7WTAh8EEskt6z-64">
          <mxGeometry relative="1" as="geometry" />
        </mxCell>
        <mxCell id="EZWAzVr7WTAh8EEskt6z-96" style="edgeStyle=orthogonalEdgeStyle;rounded=0;orthogonalLoop=1;jettySize=auto;html=1;exitX=1;exitY=0.5;exitDx=0;exitDy=0;entryX=1;entryY=0;entryDx=0;entryDy=23.500000000000014;entryPerimeter=0;dashed=1;endArrow=blockThin;endFill=1;" edge="1" parent="1" source="EZWAzVr7WTAh8EEskt6z-37" target="EZWAzVr7WTAh8EEskt6z-60">
          <mxGeometry relative="1" as="geometry">
            <Array as="points">
              <mxPoint x="880" y="1180" />
              <mxPoint x="880" y="944" />
            </Array>
          </mxGeometry>
        </mxCell>
        <mxCell id="EZWAzVr7WTAh8EEskt6z-97" style="edgeStyle=orthogonalEdgeStyle;rounded=0;orthogonalLoop=1;jettySize=auto;html=1;exitX=1;exitY=0.75;exitDx=0;exitDy=0;entryX=1;entryY=0;entryDx=0;entryDy=23.500000000000014;entryPerimeter=0;dashed=1;endArrow=blockThin;endFill=1;" edge="1" parent="1" source="EZWAzVr7WTAh8EEskt6z-37" target="EZWAzVr7WTAh8EEskt6z-56">
          <mxGeometry relative="1" as="geometry">
            <Array as="points">
              <mxPoint x="900" y="1200" />
              <mxPoint x="900" y="844" />
            </Array>
          </mxGeometry>
        </mxCell>
        <mxCell id="EZWAzVr7WTAh8EEskt6z-98" style="edgeStyle=orthogonalEdgeStyle;rounded=0;orthogonalLoop=1;jettySize=auto;html=1;exitX=1;exitY=0.5;exitDx=0;exitDy=0;entryX=0;entryY=1;entryDx=0;entryDy=-15;entryPerimeter=0;dashed=1;endArrow=blockThin;endFill=1;" edge="1" parent="1" source="EZWAzVr7WTAh8EEskt6z-33" target="EZWAzVr7WTAh8EEskt6z-79">
          <mxGeometry relative="1" as="geometry">
            <Array as="points">
              <mxPoint x="650" y="740" />
              <mxPoint x="650" y="585" />
            </Array>
          </mxGeometry>
        </mxCell>
      </root>
    </mxGraphModel>
  </diagram>
</mxfile>
